<svg enable-background="new 0 0 187.348 187.348" height="188" viewBox="0 0 187.348 187.348" width="188" xmlns="http://www.w3.org/2000/svg"><circle cx="93.674" cy="93.674" fill="#f9ba06" r="93.674"></circle><g fill="#ff541c"><path d="m57.466 23.661h5.679v73.689h-5.679z" transform="matrix(.7071 -.7071 .7071 .7071 -25.1206 60.3641)"></path><path d="m19.639 115.74h53.33v5.679h-53.33z" transform="matrix(.8738 -.4863 .4863 .8738 -51.8239 37.4864)"></path><path d="m90.653 48.255h50.404v5.679h-50.404z" transform="matrix(.4417 -.8972 .8972 .4417 18.8417 132.4661)"></path><path d="m100.276 129.14h5.679v50.265h-5.679z" transform="matrix(.9864 -.1644 .1644 .9864 -23.9585 19.0504)"></path><path d="m148.25 79.04h5.679v47.632h-5.679z" transform="matrix(.1831 -.9831 .9831 .1831 22.3042 232.554)"></path><path d="m74.878 185.435c22.217 4.529 45.751.946 65.866-10.761l-35.97-11.782z"></path><path d="m111.936 57.457-47.088 7.458-7.458 47.088 42.479 21.644 33.711-33.712z"></path><path d="m164.495 32.4c-1.466-1.691-2.976-3.356-4.583-4.963-16.062-16.062-36.506-25.067-57.483-27.025l22.634 32.178z"></path><path d="m174.319 141.369c12.016-20.283 15.702-44.121 11.093-66.597l-22.941 30.424z"></path><path d="m32.425 164.517.033-39.478-32.023-22.334c2.01 20.881 11.01 41.216 27.002 57.207 1.614 1.614 3.288 3.132 4.988 4.605z"></path><path d="m57.645 7.198c-10.982 4.57-21.275 11.306-30.208 20.239-8.947 8.947-15.691 19.259-20.261 30.26l37.473-12.981z"></path></g></svg>