<svg enable-background="new 0 0 956.372 756.027" height="757" viewBox="0 0 956.372 756.027" width="957" xmlns="http://www.w3.org/2000/svg"><path d="m450.718 252.074 150.271 111.957 61.727 258.479 80.721-20.242-92.768-263.786-186.469-112.121z" fill="#d37c5e"></path><path d="m608.245 394.893 57.27-15.035 79.386 216.74-86.638 25.388z" fill="#fce302"></path><path d="m649.071 622.686s40.108-4.617 67.659-31.625c-15.988-21.415 17.107-37.636 17.107-37.636s43.572 44.475 155.581 14.444c7.823 18.793 11.813 30.64 11.813 30.64l-240.967 94.483z" fill="#00bf4d"></path><path d="m821.184 626.069c-.01-.021-.019-.043-.029-.065-10.73-21.233-46.805-25.87-80.577-10.359-30.846 14.168-49.086 40.242-43.84 60.832z" fill="#ff541c"></path><path d="m800.941 624.414h21.109v18.136h-21.109z" transform="matrix(.9293 -.3693 .3693 .9293 -176.5799 344.4637)"></path><path d="m677.845 675.22h21.109v18.136h-21.109z" transform="matrix(.9293 -.3693 .3693 .9293 -204.044 302.5962)"></path><path d="m869.289 598.466h21.109v18.136h-21.109z" transform="matrix(.9293 -.3693 .3693 .9293 -162.166 367.8703)"></path><path d="m658.338 682.276 1.925 10.716 240.968-94.483s-1.208-3.579-3.58-9.892z"></path><path d="m612.953 417.311 60.322-16.889 5.314 15.762-61.759 17.074z" fill="#ff541c"></path><path d="m599.38 303.027-66.15 83.549-150.514-135.2 76.962-31.442z" fill="#d12b05"></path><path d="m374.407 108.103 143.072 55.432 146.712-35.667 7.681 37.019-151.231 28.939-147.354-71.692z" fill="#f29979"></path><path d="m662.593 128.903 44.805-42.964 50.197-20.055 7.34 20.958-37.528 13.212 38.519-.536-.951 19.505-6.307 24.875-39.991-6.776-47.402 27.385z" fill="#f29979"></path><path d="m696.037 128.983 34.802-13.818 5.391 21.935-65.425 28.016" fill="#f29979"></path><path d="m671.364 166.421-1.117-2.609 64.317-27.543-4.715-19.183-33.288 13.216-1.047-2.639 36.315-14.419 6.067 24.687z" fill="#231f20"></path><path d="m373.571 107.506 13.816 29.078 32.15 14.141 6.883-24.639z" fill="#05a345"></path><path d="m360.299 115.608-140.725 15.262-106.189 76.698 22.323 21.803 95.603-80.218 130.842-22.664z" fill="#f29979"></path><path d="m124.982 206.424-44.192 4.806-30.837 24.056 9.281 15.043 23.556 5.083 12.855-15.319 40.311-10.757z" fill="#f29979"></path><path d="m105.355 218.853-26.32 9.422 6.452 15.195 50.635-14.977" fill="#f29979"></path><path d="m84.676 245.191-7.536-17.747 27.736-9.927.957 2.674-24.904 8.914 5.37 12.644 49.421-14.618.805 2.723z" fill="#231f20"></path><path d="m359.518 116.168 18.126.527-14.271-36.048-6.62 5.756z" fill="#f29979"></path><circle cx="361.224" cy="77.166" fill="#f29979" r="16.492"></circle><path d="m204.922 365.129 175.648 80.944 25.691-5.739 17.969-166.241-22.236-4.666-29.845 123.424-143.634-75.492z" fill="#f29979"></path><path d="m452.581 222.016-74.426 20.041-12.031 121.044 85.251 12.407z" fill="#ff541c"></path><path d="m227.453 315.939 130.513 69.063-17.206 42.99-137.398-62.581z" fill="#fce302"></path><path d="m235.952 319.652s-16.597 13.135-21.413 32.78c13.039 5.126 2.773 21.496 2.773 21.496s-31.7-7.783-73.315 36.536c-8.677-6.213-13.727-10.39-13.727-10.39l85.767-114.575z" fill="#00bf4d"></path><path d="m363.529 63.272c4.55 15.495-26.804 9.829-11.92 27.318-17.925 1.193-32.903-25.331-32.903-25.331s11.499-1.533 23.665-8.255c12.166-6.721 30.253-5.379 33.752 13.142-2.572-4.807-8.898-10.821-12.594-6.874z"></path><path d="m161.126 365.174c.009.006.018.014.028.02 9.552 6.254 25.661-.469 35.981-15.016 9.426-13.287 10.756-28.5 3.638-35.802z" fill="#ff541c"></path><path d="m155.061 354.95h11.066v9.508h-11.066z" transform="matrix(-.5953 .8035 -.8035 -.5953 545.2195 444.7994)"></path><path d="m195.879 298.311h11.066v9.508h-11.066z" transform="matrix(-.5953 .8035 -.8035 -.5953 564.8264 321.646)"></path><path d="m131.773 385.391h11.066v9.508h-11.066z" transform="matrix(-.5953 .8035 -.8035 -.5953 532.5264 512.0735)"></path><path d="m218.777 290.199-2.741-4.701-85.767 114.575s1.527 1.261 4.327 3.419z"></path><path d="m74.798 236.512-15.564 13.817-9.762-14.674" fill="#f29979"></path><path d="m58.956 252.475-10.666-16.033 2.363-1.573 8.86 13.315 14.343-12.734 1.884 2.123z" fill="#231f20"></path><path d="m343.887 377.585-19.842 42.926-10.158-4.596 20.956-43.054z" fill="#ff541c"></path><path d="m400.416 226.988-16.3 138.626 12.009 2.058 14.46-147.618z" fill="#d12b05"></path><path d="m359.811 114.791 14.408 139.699 85.459-34.556-86.107-112.428z" fill="#00bf4d"></path><path d="m322.72 112.554 6.131 30.64 43.768-6.356 1.29-29.767z" fill="#00bf4d"></path><circle cx="466.442" cy="617.374" fill="#f9ba06" r="93.674"></circle><g fill="#ff541c"><path d="m430.234 547.361h5.679v73.689h-5.679z" transform="matrix(.7071 -.7071 .7071 .7071 -286.252 477.346)"></path><path d="m392.407 639.44h53.33v5.678h-53.33z" transform="matrix(.8737 -.4864 .4864 .8737 -259.4917 284.9348)"></path><path d="m463.421 571.955h50.404v5.678h-50.404z" transform="matrix(.4417 -.8972 .8972 .4417 -242.8856 759.2805)"></path><path d="m473.044 652.84h5.679v50.265h-5.679z" transform="matrix(.9864 -.1644 .1644 .9864 -104.9849 87.4611)"></path><path d="m521.019 602.74h5.678v47.632h-5.678z" transform="matrix(.1831 -.9831 .9831 .1831 -188.0352 1026.8151)"></path><path d="m447.646 709.135c22.217 4.529 45.75.946 65.866-10.761l-35.97-11.782z"></path><path d="m484.704 581.157-47.088 7.458-7.458 47.088 42.479 21.643 33.711-33.711z"></path><path d="m537.263 556.1c-1.466-1.691-2.976-3.356-4.583-4.963-16.062-16.062-36.505-25.066-57.482-27.024l22.634 32.178z"></path><path d="m547.087 665.069c12.016-20.283 15.702-44.121 11.093-66.597l-22.941 30.424z"></path><path d="m405.193 688.216.033-39.478-32.023-22.334c2.01 20.881 11.01 41.216 27.002 57.207 1.614 1.615 3.288 3.133 4.988 4.605z"></path><path d="m430.413 530.898c-10.982 4.57-21.275 11.306-30.208 20.239-8.947 8.947-15.691 19.259-20.261 30.26l37.473-12.981z"></path></g><path d="m778.202 601.148-13.749-27.86-23.362 17.522-3.406-4.543 28.833-21.625 13.8 27.959 28.852-20.918 14.61 25.974-4.949 2.784-11.487-20.42z" fill="#fff"></path><path d="m179.445 386.142-13.834-5.614 1.069-2.63 11.177 4.535 5.446-13.798 14.745 6.293 4.072-13.523 2.719.819-4.988 16.561-14.978-6.392z" fill="#fff"></path></svg>