<svg xmlns="http://www.w3.org/2000/svg" viewBox="0 0 800 600" width="800" height="600"><g transform="translate(32.0 188.0) rotate(0.0 359.5 37.5) scale(0.9884520208963432 0.9635149023638232)"><svg width="727.4" height="77.84" viewBox="0 0 727.4 77.84"><path d="M119.02 57.95c0 7.05-1.86 13.67-5.11 19.39H2.68A31.317 31.317 0 0 1 .5 65.81c0-17.37 14.07-31.45 31.44-31.45 5.07 0 9.85 1.21 14.08 3.33 6.88-11.41 19.39-19.05 33.69-19.05 21.71 0 39.31 17.6 39.31 39.31z" fill="#fff"></path><path d="M113.91 77.84H2.68a.5.5 0 0 1-.465-.316A31.741 31.741 0 0 1 0 65.81c0-17.617 14.329-31.95 31.94-31.95 4.859 0 9.53 1.069 13.891 3.18 7.323-11.844 19.953-18.9 33.879-18.9 21.951 0 39.81 17.859 39.81 39.81 0 6.888-1.79 13.678-5.175 19.637a.501.501 0 0 1-.435.253zm-110.888-1h110.595a38.814 38.814 0 0 0 4.902-18.89c0-21.4-17.41-38.81-38.81-38.81-13.726 0-26.16 7.031-33.262 18.808a.498.498 0 0 1-.652.188 30.655 30.655 0 0 0-13.855-3.277C14.88 34.86 1 48.744 1 65.81c0 3.811.68 7.52 2.022 11.03z" fill="#1d2445"></path><path d="M726.9 77.34H155.74c.01-1.56.2-3.15.56-4.73 2.49-10.88 12.55-18.08 23.35-17.29.05-.23.09-.45.14-.68 3.65-15.95 19.53-25.92 35.48-22.27 11.81 2.7 20.33 12.11 22.49 23.28 6.51-5.76 15.6-8.41 24.72-6.32 6.71 1.53 12.29 5.37 16.12 10.48 2.1-1.33 4.43-2.32 6.88-2.9 3.84-13.03 15.89-22.55 30.17-22.55 5.06 0 9.84 1.21 14.08 3.33 6.88-11.41 19.39-19.05 33.69-19.05 10.8 0 20.59 4.36 27.69 11.41 7.61-10.19 19.76-16.78 33.46-16.78 9.09 0 17.49 2.91 24.35 7.85C453.33 9.09 464.89.5 478.45.5c14.87 0 27.32 10.32 30.6 24.18 10.91-17.66 32.19-27.3 53.56-22.41 19.88 4.55 34.24 20.39 37.87 39.21 10.96-9.7 26.28-14.16 41.64-10.65 11.3 2.59 20.7 9.05 27.13 17.66 8.18-5.2 18.35-7.25 28.55-4.92 16.45 3.76 27.89 17.78 29.1 33.77z" fill="#fff"></path><path d="M726.919 77.84H155.74a.499.499 0 0 1-.5-.502 22.48 22.48 0 0 1 .573-4.838c2.39-10.444 11.527-17.738 22.221-17.738.403 0 .808.011 1.214.033l.053-.259c3.156-13.79 15.218-23.417 29.333-23.417 2.257 0 4.527.258 6.748.766 11.347 2.594 20.171 11.509 22.695 22.836a28.36 28.36 0 0 1 18.159-6.598c2.125 0 4.264.243 6.355.722a28.438 28.438 0 0 1 16.131 10.303 23.023 23.023 0 0 1 6.361-2.654c4.065-13.341 16.592-22.632 30.567-22.632 4.849 0 9.52 1.07 13.891 3.18 7.322-11.844 19.953-18.9 33.879-18.9 10.389 0 20.179 3.957 27.634 11.155 8.064-10.51 20.247-16.525 33.516-16.525 8.687 0 17.009 2.615 24.112 7.568C453.438 8.146 465.317 0 478.45 0c14.49 0 26.991 9.578 30.798 23.435C518.473 9.261 534.533.503 551.445.503c3.771 0 7.565.431 11.276 1.28 19.174 4.388 34.034 19.55 38.079 38.756 8.62-7.358 19.529-11.399 30.816-11.399a47.499 47.499 0 0 1 37.757 18.683 37.96 37.96 0 0 1 28.538-4.74c16.326 3.732 28.156 17.417 29.476 34.081a.5.5 0 0 1-.468.676zm-570.669-1h570.107c-1.443-16.042-12.902-29.179-28.668-32.783a36.97 36.97 0 0 0-28.17 4.855.5.5 0 0 1-.669-.123 46.491 46.491 0 0 0-37.234-18.65c-11.329 0-22.27 4.161-30.806 11.715a.501.501 0 0 1-.822-.279c-3.706-19.217-18.422-34.454-37.49-38.817a49.602 49.602 0 0 0-11.054-1.254c-16.956 0-33.038 8.981-41.969 23.44a.488.488 0 0 1-.506.231.5.5 0 0 1-.406-.378C505.247 10.785 492.865 1 478.45 1c-12.933 0-24.61 8.155-29.06 20.292a.502.502 0 0 1-.761.234c-7.047-5.074-15.366-7.756-24.059-7.756-13.141 0-25.19 6.043-33.06 16.579a.5.5 0 0 1-.753.055c-7.315-7.264-17.023-11.265-27.337-11.265-13.726 0-26.161 7.031-33.262 18.808a.5.5 0 0 1-.652.189 30.71 30.71 0 0 0-13.856-3.277c-13.63 0-25.84 9.125-29.691 22.191a.5.5 0 0 1-.364.345 22.051 22.051 0 0 0-6.728 2.836.5.5 0 0 1-.667-.123 27.435 27.435 0 0 0-15.832-10.292 27.534 27.534 0 0 0-6.132-.697c-6.669 0-13.113 2.452-18.145 6.904a.501.501 0 0 1-.823-.28c-2.192-11.334-10.871-20.318-22.111-22.887a29.318 29.318 0 0 0-6.524-.741c-13.646 0-25.307 9.308-28.357 22.635l-.138.674a.486.486 0 0 1-.525.393 21.468 21.468 0 0 0-1.58-.058c-10.225 0-18.961 6.975-21.247 16.96a21.78 21.78 0 0 0-.536 4.121z" fill="#1d2445"></path></svg></g><g transform="translate(78.0 195.0) rotate(0.0 101.5 58.5) scale(0.9960794704586381 0.9920298456842462)"><svg width="203.799" height="117.94" viewBox="0 0 203.799 117.94"><g fill="#1d2445"><path d="M27.768 5.2h2v112.24h-2zm29.253 0h2v112.24h-2zm29.252 0h2v112.24h-2zm29.253 0h2v112.24h-2zm29.252 0h2v112.24h-2zm29.253 0h2v112.24h-2z"></path><path d="M4.771 105.698h194.256v2H4.771zm0-29.253h194.256v2H4.771zm0-29.252h194.256v2H4.771zm0-29.253h194.256v2H4.771z"></path></g><path d="M203.299 117.44h-9V9.5H9.5v107.94h-9V.5h202.799z" fill="#fff"></path><path d="M203.299 117.94h-9a.5.5 0 0 1-.5-.5V10H10v107.44a.5.5 0 0 1-.5.5h-9a.5.5 0 0 1-.5-.5V.5A.5.5 0 0 1 .5 0h202.799a.5.5 0 0 1 .5.5v116.94a.5.5 0 0 1-.5.5zm-8.5-1h8V1H1v115.94h8V9.5a.5.5 0 0 1 .5-.5h184.799a.5.5 0 0 1 .5.5z" fill="#1d2445"></path></svg></g><g transform="translate(197.0 148.0) rotate(0.0 92.0 178.0) scale(0.9978308026030368 0.9995367315710415)"><svg width="184.4" height="356.165" viewBox="0 0 184.4 356.165"><path d="m91.452 244.822-10.291-86.704-4.507-17.383-35.244 7.067c-5.791 1.161-9.315 7.066-7.587 12.714l26.096 85.316-17.787 19.559c-1.696 1.721-3.062 3.584-4.045 5.512l21.993 21.161 30.878-39.99c1.379-2.308 1.451-4.989.494-7.252z" fill="#fff"></path><path d="M60.079 292.564a.501.501 0 0 1-.347-.14l-21.994-21.161a.5.5 0 0 1-.099-.588c1.008-1.978 2.399-3.873 4.134-5.635l17.582-19.334-26.012-85.044c-.865-2.827-.492-5.905 1.023-8.443s4.046-4.327 6.944-4.907l35.244-7.067a.5.5 0 0 1 .582.365l4.507 17.382 10.295 86.702c1.042 2.522.842 5.303-.554 7.638L60.475 292.37a.501.501 0 0 1-.359.193l-.037.001zm-21.377-21.762 21.322 20.515 30.537-39.548c1.21-2.029 1.379-4.509.431-6.753a.456.456 0 0 1-.036-.136l-10.291-86.704-4.376-16.858-34.781 6.975a9.502 9.502 0 0 0-6.281 4.439 9.505 9.505 0 0 0-.926 7.638l26.096 85.316a.496.496 0 0 1-.108.482l-17.787 19.559c-1.58 1.605-2.853 3.307-3.8 5.075z" fill="#1d2445"></path><path d="m64.014 286.963-22.47 29.1-9.17 12.21-8.18 10.89-1.04 1.38-.36.49c-.17-.08-1.52-.64-3.39-1.4-.73-.3-1.53-.63-2.38-.97-1.5-.62-3.12-1.28-4.66-1.9-3.48-1.42-6.49-2.63-6.49-2.63l.13-.25 2.16-4.24 1.42-2.79 2.88-5.66.9-1.75 3.01-5.92 5.52-10.83 16.19-31.79c.59-1.15 1.31-2.28 2.16-3.37z" fill="#1d2445"></path><path d="M22.795 341.533a.501.501 0 0 1-.213-.048c-.144-.067-1.393-.588-3.365-1.39l-.281-.115c-.652-.268-1.355-.557-2.096-.854a575.013 575.013 0 0 0-4.661-1.9 1512.85 1512.85 0 0 0-6.49-2.63.5.5 0 0 1-.257-.694l3.708-7.275 28.5-55.95a21.788 21.788 0 0 1 2.211-3.451.5.5 0 0 1 .71-.079l23.77 19.43a.5.5 0 0 1 .08.692l-22.47 29.101-18.743 24.96a.505.505 0 0 1-.403.203zm-16.224-7.659c1.001.403 3.358 1.354 5.983 2.426 1.539.62 3.161 1.28 4.662 1.901.739.295 1.445.586 2.1.854l.279.114c1.28.521 2.443.999 3.032 1.247l1.168-1.555 17.35-23.099 22.177-28.722-22.992-18.794a20.68 20.68 0 0 0-1.8 2.884zm28.167-208.932 4.488-15.015 4.381-4.622-2.009-3.316 4.039-13.514a37.58 37.58 0 0 1 5.728-11.5l2.955-1.021 2.663-6.623 4.816-6.552a48.19 48.19 0 0 1 15.407-13.574l2.294-1.276c2.515-1.398 5.493-1.794 8.253-.979 9.536 2.818 16.045 10.489 19.191 20.566 3.948 12.645 4.841 28.139 1.48 29.039-6.072 1.627-22.909 45.176-22.909 45.176l-43.002-4.984c-5.698-.66-9.418-6.308-7.775-11.805z" fill="#1d2445"></path><path d="M85.517 142.232a.549.549 0 0 1-.058-.003l-43.002-4.985c-2.864-.332-5.416-1.903-7.002-4.311s-2.022-5.373-1.196-8.135l4.488-15.015a.496.496 0 0 1 .116-.201l4.118-4.345-1.811-2.989a.498.498 0 0 1-.051-.402l4.039-13.514a37.97 37.97 0 0 1 5.805-11.653.499.499 0 0 1 .24-.177l2.739-.946 2.579-6.412a.484.484 0 0 1 .061-.109l4.816-6.552a48.346 48.346 0 0 1 15.567-13.715l2.294-1.276c2.651-1.474 5.824-1.852 8.637-1.021 9.236 2.729 16.171 10.15 19.527 20.896 3.44 11.017 4.628 24.583 2.492 28.463-.361.657-.819 1.063-1.36 1.208-4.78 1.281-17.914 32.826-22.571 44.874a.502.502 0 0 1-.467.32zm-45.846-32.047-4.454 14.9a8.701 8.701 0 0 0 1.073 7.298 8.707 8.707 0 0 0 6.282 3.868l42.618 4.94c2.29-5.898 17.106-43.51 23.105-45.118.268-.072.518-.315.743-.724 1.992-3.619.743-17.073-2.57-27.684-3.253-10.417-9.95-17.604-18.856-20.235-2.559-.756-5.448-.41-7.868.936l-2.294 1.276a47.377 47.377 0 0 0-15.248 13.433l-4.779 6.501-2.64 6.564a.5.5 0 0 1-.301.286l-2.807.97a37.02 37.02 0 0 0-5.561 11.222L42.14 101.92l1.894 3.126a.5.5 0 0 1-.065.603z" fill="#1d2445"></path><path d="m55.748 143.449 12.506 5.371c.569.244.983.75 1.111 1.356l1.32 6.273a1.903 1.903 0 0 1-.627 1.839l-6.161 5.255a.884.884 0 0 1-1.421-.421l-.276-.933a3.29 3.29 0 0 1 .839-3.272l2.203-2.182-.936-4.035-2.518-.88-5.208 4.728a4.114 4.114 0 0 1-3.581.987l-12.502-2.526 3.22-12.424 10.702.554c.457.024.908.129 1.329.31z" fill="#c78982"></path><path d="M100.85 18.086c.013-5.587 7.302-10.1 16.282-10.079 7.66.018 14.075 3.329 15.787 7.77.443 1.15-.445 2.382-1.677 2.379z" fill="#002652"></path><path d="M102.098 10.187c.011-4.757 6.217-8.598 13.861-8.581 6.521.015 11.983 2.834 13.44 6.615.377.979-.379 2.028-1.428 2.025z" fill="#1d2445"></path><path d="M127.974 10.747h-.004l-25.874-.059a.5.5 0 0 1-.5-.501c.012-5.007 6.431-9.08 14.309-9.08 6.673.015 12.391 2.866 13.958 6.935a1.944 1.944 0 0 1-.219 1.823 2.022 2.022 0 0 1-1.67.882zm-25.35-1.058 25.348.058.002.5v-.5c.338 0 .655-.167.848-.448a.955.955 0 0 0 .11-.897c-1.4-3.633-6.857-6.28-12.975-6.294-7.101-.001-12.897 3.356-13.333 7.581z" fill="#1d2445"></path><path d="m122.828 21.592.074 20.993c-.068 2.482-2.535 4.178-4.877 3.352l-21.716-7.664z" fill="#c78982"></path><path d="m122.66 36.278-10.621-.291.37-13.502 10.62.292z" fill="#c78982"></path><path d="m126.046 31.252-3.033-3.143.012-5.227c0-.158-.019-.311-.023-.467l.021-.778a12.764 12.764 0 0 0-3.641-9.291c-3.105-3.948-7.911-6.496-13.324-6.509l-5.029-.012c-5.496-.013-9.961 4.432-9.974 9.928l-.051 22.31-4.463 8.749 12.007 18.833a1 1 0 0 0 1.753-.122l11.368-24.846 11.315.026.015-6.404 1.807-.039c1.549-.031 2.315-1.893 1.24-3.008z" fill="#fff"></path><path d="M99.39 66.609a1.49 1.49 0 0 1-1.263-.694L86.12 47.082a.5.5 0 0 1-.024-.496l4.409-8.643.051-22.19c.013-5.75 4.701-10.427 10.45-10.427l5.054.012c5.378.012 10.377 2.454 13.716 6.7 2.503 2.563 3.847 5.991 3.748 9.613l-.021.777.01.156c.007.099.013.198.013.299l-.011 5.024 2.892 2.997c.638.661.816 1.6.467 2.449a2.25 2.25 0 0 1-2.056 1.409l-1.318.028-.014 5.916a.5.5 0 0 1-.5.5h-.001l-10.995-.026-11.234 24.553c-.247.54-.771.876-1.366.876zM87.116 46.786 98.97 65.377a.49.49 0 0 0 .42.231.491.491 0 0 0 .457-.292l11.368-24.846a.5.5 0 0 1 .455-.292h.001l10.815.025.014-5.904a.5.5 0 0 1 .489-.499l1.807-.039c.522-.011.954-.307 1.153-.79s.102-.997-.262-1.374l-3.033-3.143a.496.496 0 0 1-.14-.348l.012-5.227c0-.078-.005-.153-.01-.229l-.012-.226.021-.803a12.208 12.208 0 0 0-3.499-8.928c-3.184-4.044-7.897-6.347-12.967-6.358l-5.029-.012c-5.221 0-9.46 4.23-9.473 9.429l-.051 22.31a.493.493 0 0 1-.055.226z" fill="#1d2445"></path><path d="M118.588 27.277a.502.502 0 0 1-.353-.855l1.015-1.011c.297-.295.7-.455 1.109-.456l2.434.006a.5.5 0 0 1-.001 1h-.001l-2.434-.006h-.001a.566.566 0 0 0-.401.166l-1.015 1.01a.493.493 0 0 1-.352.146zm-9.011 1.868-.009 3.769a8.697 8.697 0 0 0 5.241 8.002 4.935 4.935 0 0 1 4.946-4.924l3.24.008-.016 6.87c-.006 2.504-2.531 4.218-4.86 3.297l-9.231-3.648a3.555 3.555 0 0 1-2.248-3.313l.03-12.981a2.913 2.913 0 0 1 2.907 2.92z" fill="#1d2445"></path><path d="M119.428 46.919a4.035 4.035 0 0 1-1.493-.287l-9.231-3.648a4.029 4.029 0 0 1-2.564-3.779l.03-12.981a.5.5 0 0 1 .5-.5h.001a3.419 3.419 0 0 1 3.407 3.422l-.009 3.769a8.19 8.19 0 0 0 4.297 7.23 5.447 5.447 0 0 1 5.379-4.653l3.251.007a.5.5 0 0 1 .5.501l-.016 6.87a4.062 4.062 0 0 1-4.052 4.049zm-12.26-20.142-.028 12.429a3.035 3.035 0 0 0 1.932 2.847l9.231 3.648c.365.144.744.217 1.126.217a3.06 3.06 0 0 0 3.051-3.05l.015-6.37-2.739-.006a4.445 4.445 0 0 0-4.446 4.425.498.498 0 0 1-.699.458 9.192 9.192 0 0 1-5.542-8.462l.009-3.769a2.42 2.42 0 0 0-1.91-2.367z" fill="#1d2445"></path><path d="m119.262 41.616 2.446.57a1.039 1.039 0 0 0 1.275-1.009l.007-2.959-2.345-.005a2.275 2.275 0 0 0-2.28 2.269 1.16 1.16 0 0 0 .897 1.134z" fill="#fff"></path><g fill="#1d2445"><path d="M121.946 42.713c-.118 0-.236-.014-.351-.041l-2.447-.571a1.652 1.652 0 0 1-1.284-1.622 2.779 2.779 0 0 1 2.774-2.768l2.352.005a.5.5 0 0 1 .499.501l-.006 2.959a1.54 1.54 0 0 1-1.537 1.537zm-1.303-4.001a1.78 1.78 0 0 0-1.779 1.771.658.658 0 0 0 .511.646l2.447.571a.546.546 0 0 0 .661-.524l.005-2.458zm-26.839-.506 7.892 3.528.077-33.444a3.553 3.553 0 0 0-3.546-3.562l-1.599-.004c-7.616-.017-13.459 6.752-12.33 14.284l1.249 8.329a14.218 14.218 0 0 0 8.257 10.869z"></path><path d="M101.696 42.234a.502.502 0 0 1-.204-.043L93.6 38.663a14.653 14.653 0 0 1-8.547-11.251l-1.249-8.329c-.559-3.729.531-7.506 2.992-10.363s6.034-4.495 9.803-4.495l1.63.004c1.083.002 2.1.426 2.864 1.194s1.183 1.787 1.181 2.869l-.077 33.444a.498.498 0 0 1-.501.498zm-5.069-37.01a11.941 11.941 0 0 0-11.833 13.71l1.249 8.329a13.657 13.657 0 0 0 7.966 10.487l7.19 3.214.075-32.675a3.034 3.034 0 0 0-.89-2.162 3.034 3.034 0 0 0-2.157-.899z"></path><path d="m94.473 9.205 12.438.029-.061 26.629a6.224 6.224 0 0 1-6.239 6.21l-6.214-.014z"></path><path d="M100.626 42.573h-.016l-6.214-.014a.5.5 0 0 1-.5-.501l.076-32.854a.5.5 0 0 1 .5-.5h.001l12.438.029a.5.5 0 0 1 .499.501l-.061 26.629c-.007 3.7-3.024 6.71-6.723 6.71zm-5.727-1.013 5.714.013.014.5v-.5a5.733 5.733 0 0 0 5.724-5.711l.06-26.129-11.439-.027z"></path><path d="m102.641 6.895 14.645.034-.019 8.351a7.108 7.108 0 0 1-7.124 7.092l-7.537-.017z"></path><path d="M110.159 22.871h-.018l-7.537-.017a.5.5 0 0 1-.5-.501l.036-15.459a.5.5 0 0 1 .5-.499h.001l14.645.034a.5.5 0 0 1 .5.501l-.02 8.351c-.009 4.185-3.422 7.59-7.607 7.59zm-7.053-1.016 7.037.016.016.5v-.5c3.635 0 6.599-2.958 6.607-6.592l.019-7.851-13.645-.032zm-6.541 4.75c.013-5.587-7.256-10.133-16.235-10.154-7.66-.018-14.09 3.264-15.822 7.697-.448 1.148.434 2.384 1.666 2.387z"></path><path d="M96.566 27.105c-.001 0-.001 0 0 0l-30.392-.07a2.293 2.293 0 0 1-1.892-1.005 2.2 2.2 0 0 1-.24-2.064c1.844-4.719 8.517-8.015 16.227-8.015 9.303.021 16.81 4.801 16.796 10.654a.5.5 0 0 1-.499.5zM80.329 16.951c-7.369 0-13.658 3.034-15.355 7.379-.148.379-.099.793.135 1.137.242.355.641.567 1.067.568l29.87.069c-.416-5.073-7.303-9.134-15.717-9.153z"></path><path d="M102.591 33.726c.012-5.195-6.746-9.421-15.094-9.44-7.122-.016-13.1 3.035-14.711 7.156-.417 1.067.404 2.216 1.549 2.219z"></path><path d="M102.591 34.227c-.001 0-.001 0 0 0l-28.256-.065a2.171 2.171 0 0 1-1.788-.95 2.08 2.08 0 0 1-.227-1.951c1.72-4.401 7.937-7.475 15.119-7.475 4.189.009 8.077 1.023 11.006 2.855 3.002 1.878 4.653 4.395 4.646 7.086a.501.501 0 0 1-.5.5zm-15.096-9.441c-6.837 0-12.671 2.812-14.244 6.838-.133.341-.089.715.122 1.024.218.32.578.512.963.513l27.732.064c-.192-2.148-1.65-4.169-4.155-5.736-2.772-1.734-6.472-2.694-10.418-2.703z"></path><path d="M98.662 37.982c4.333.01 5.677-5.823 1.795-7.747-2.114-1.048-4.677-1.665-7.441-1.671-6.191-.014-11.39 3.038-12.791 7.161-.363 1.067.35 2.216 1.346 2.219z"></path><path d="M98.674 38.482h-.013l-17.091-.039c-.597-.001-1.151-.3-1.522-.819a2.287 2.287 0 0 1-.297-2.061c1.501-4.416 6.938-7.5 13.221-7.5 2.795.006 5.445.602 7.707 1.723 2.264 1.123 2.859 3.408 2.445 5.175-.411 1.752-1.947 3.521-4.45 3.521zm-5.66-9.418c-5.904 0-10.951 2.805-12.316 6.822-.134.394-.073.827.163 1.157.181.254.44.4.711.4l17.09.039.01.5v-.5c2.091 0 3.18-1.481 3.477-2.749.3-1.282-.021-3.111-1.916-4.051-2.123-1.053-4.62-1.613-7.219-1.618z"></path><path d="M100.88 42.102c3.192.007 4.182-4.29 1.322-5.708-1.557-.772-3.446-1.226-5.482-1.231-4.561-.01-8.391 2.239-9.423 5.275-.267.786.258 1.633.992 1.634z"></path><path d="M100.889 42.602c-.001 0-.001 0 0 0h-.01l-12.591-.029c-.483-.001-.931-.241-1.229-.659a1.815 1.815 0 0 1-.235-1.637c1.124-3.306 5.18-5.614 9.865-5.614 2.08.005 4.052.449 5.735 1.283 1.732.859 2.188 2.608 1.871 3.96-.314 1.343-1.49 2.696-3.406 2.696zm-4.17-6.939c-4.293 0-7.96 2.03-8.948 4.937a.82.82 0 0 0 .103.733c.063.09.203.24.417.24l12.591.029.007.5v-.5c1.463 0 2.225-1.036 2.433-1.923.21-.897-.015-2.179-1.342-2.837-1.547-.767-3.366-1.174-5.261-1.179zm4.132-18.289c.013-5.587-7.256-10.133-16.235-10.154-7.66-.018-14.09 3.264-15.822 7.697-.448 1.148.434 2.384 1.666 2.387z"></path><path d="m100.851 17.874-30.392-.069a2.293 2.293 0 0 1-1.891-1.005 2.195 2.195 0 0 1-.24-2.063c1.844-4.72 8.517-8.016 16.228-8.016 9.302.021 16.809 4.801 16.796 10.654a.5.5 0 0 1-.501.499zM84.615 7.721c-7.369 0-13.659 3.034-15.356 7.379-.148.379-.099.793.135 1.137.242.354.641.567 1.067.568l29.87.068c-.416-5.072-7.301-9.133-15.716-9.152z"></path><path d="M114.727 10.654C114.74 5.067 107.471.521 98.492.5c-7.66-.018-14.09 3.264-15.822 7.697-.448 1.148.434 2.384 1.666 2.387z"></path><path d="m114.727 11.154-30.392-.07a2.296 2.296 0 0 1-1.892-1.005 2.198 2.198 0 0 1-.24-2.063C84.048 3.296 90.72 0 98.431 0c9.303.021 16.81 4.801 16.796 10.655a.5.5 0 0 1-.5.499zM98.491 1c-7.369 0-13.658 3.034-15.355 7.379-.148.379-.099.793.134 1.136.242.355.641.567 1.067.568l29.87.069c-.416-5.071-7.302-9.133-15.716-9.152z"></path></g><path d="m82.847 147.421 7.668 83.154-37.614 2.135-10.879-76.852z" fill="#fff"></path><path d="M52.9 233.21a.501.501 0 0 1-.495-.43l-10.879-76.853a.5.5 0 0 1 .394-.56l40.825-8.438a.488.488 0 0 1 .398.088.497.497 0 0 1 .201.355l7.667 83.154a.503.503 0 0 1-.47.545l-37.614 2.136c-.008.003-.017.003-.027.003zm-10.317-76.958 10.749 75.933 36.638-2.08-7.568-82.082z" fill="#1d2445"></path><path d="m183.488 140.089-21.284-10.206.003.02a20.764 20.764 0 0 0-1.848-1.376 2.778 2.778 0 0 1 1.496-.759l3.784-.586a5.359 5.359 0 0 0 2.614-1.145c.5-.433.911-.944 1.103-1.483a1.86 1.86 0 0 0 .105-.878c-.007-.039-.014-.08-.025-.117a.915.915 0 0 0-1.136-.618l-11.561 2.241-2.807-.086a10.857 10.857 0 0 0-4.994 1.024l-2.09.991c-.24.007-.481.018-.726.035l-18.493-11.069-37.617-50.009c-3.026-4.025-8.174-5.122-11.495-2.45l-1.451 1.167c-5.324 4.284-5.707 12.987-.853 19.439l29.623 39.384a8.862 8.862 0 0 0 3.099 2.612 19.966 19.966 0 0 0 5.4 2.697l30.663 11.287a8.997 8.997 0 0 0 3.244 2.642l3.926 1.889c.062.03.123.061.186.09l.221.106c.066.032.137.039.206.057.858.33 1.769.536 2.711.561l13.831.361c.94-.048 1.707-.511 2.083-1.154l2.889.172c1.124-.022 2.049-.647 2.388-1.493l1.088.187c1.243.113 2.329-.535 2.664-1.492a.62.62 0 0 0 .002-.294l.556.184c1.211.295 2.383-.184 2.856-1.081.001-.005.004-.009.006-.014a.645.645 0 0 0-.367-.836z" fill="#fff"></path><path d="M169.322 146.411h-.013l-13.831-.36a8.63 8.63 0 0 1-2.877-.594.786.786 0 0 1-.244-.074l-4.333-2.085a9.533 9.533 0 0 1-3.334-2.672l-30.528-11.238a20.418 20.418 0 0 1-5.515-2.758c-1.196-.593-2.329-1.547-3.21-2.721L75.812 84.525c-5.006-6.655-4.584-15.685.939-20.129l1.451-1.167c1.278-1.028 2.85-1.571 4.547-1.571 2.862 0 5.727 1.537 7.661 4.11l37.558 49.932 18.275 10.939c.163-.01.323-.017.483-.022l1.996-.947a11.302 11.302 0 0 1 5.226-1.072l2.749.083 11.506-2.23c.084-.027.219-.047.354-.047a1.424 1.424 0 0 1 1.396 1.194c.051.373.007.747-.127 1.125-.206.578-.636 1.164-1.246 1.693a5.853 5.853 0 0 1-2.871 1.262l-3.778.585c-.251.04-.493.123-.716.246.439.311.845.621 1.212.926l21.277 10.203c.555.216.846.882.616 1.47-.497.951-1.486 1.5-2.611 1.5-.278 0-.559-.034-.835-.102l-.055-.018c-.518 1.105-1.736 1.754-3.095 1.632l-.762-.13c-.517.863-1.518 1.416-2.659 1.438l-2.645-.156c-.513.67-1.355 1.088-2.312 1.137-.007.002-.016.002-.024.002zM82.75 62.658c-1.467 0-2.822.467-3.92 1.35l-1.451 1.167c-5.108 4.109-5.453 12.52-.768 18.748l29.623 39.384a8.407 8.407 0 0 0 2.924 2.466 19.794 19.794 0 0 0 5.329 2.668l30.682 11.294c.089.033.167.09.224.166a8.542 8.542 0 0 0 3.064 2.495l4.334 2.085.118.024c.903.345 1.759.522 2.595.544l13.811.36c.721-.042 1.355-.389 1.658-.906a.473.473 0 0 1 .461-.246l2.889.172c.841-.019 1.618-.492 1.894-1.18a.506.506 0 0 1 .549-.308l1.088.187c.04.003.119.006.196.006.868 0 1.614-.438 1.885-1.099-.025-.172.038-.396.164-.509.133-.12.323-.224.494-.165l.556.184c.16.037.361.062.56.062.745 0 1.389-.338 1.688-.883l.011-.024c.011-.033-.027-.118-.103-.147l-21.204-10.166a.47.47 0 0 1-.218-.104 19.95 19.95 0 0 0-1.803-1.341.503.503 0 0 1-.071-.774 3.255 3.255 0 0 1 1.766-.894l3.786-.587a4.851 4.851 0 0 0 2.375-1.038c.468-.406.799-.846.947-1.263a1.35 1.35 0 0 0 .081-.643c-.074-.264-.309-.384-.524-.323l-11.607 2.252c-.036.007-.073.007-.11.009l-2.807-.085a10.328 10.328 0 0 0-4.766.977l-2.089.99a.493.493 0 0 1-.199.048c-.233.007-.468.017-.707.034a.556.556 0 0 1-.292-.07l-18.493-11.069a.514.514 0 0 1-.143-.128L89.613 66.369c-1.748-2.324-4.313-3.711-6.863-3.711z" fill="#1d2445"></path><path d="m63.691 251.677 18.554-95.294-10.703-13.131-38.188 1.458.67 98.264a6.68 6.68 0 0 0-.011 1.059l2.83 34.49v.01c.054.544 2.74 2.841 5.316 2.975 5.91.307 16.503-.244 22.811-.638 3.075-.192 4.133-2.347 4.133-2.347l-5.748-25.7a6.83 6.83 0 0 0 .336-1.146z" fill="#fff"></path><path d="M46.269 282.096c-1.594 0-2.985-.03-4.135-.09-2.611-.136-5.694-2.488-5.788-3.424l-2.831-34.509a7.079 7.079 0 0 1 .011-1.141l-.672-98.22a.5.5 0 0 1 .481-.504l38.188-1.458a.508.508 0 0 1 .407.185l10.703 13.132a.499.499 0 0 1 .103.411l-18.554 95.294a7.336 7.336 0 0 1-.306 1.085l5.716 25.556a.501.501 0 0 1-.039.33c-.048.099-1.224 2.417-4.55 2.625-5.323.333-12.894.728-18.734.728zM33.858 145.191l.667 97.779a6.472 6.472 0 0 0-.012 1.023l2.83 34.488c.179.405 2.521 2.405 4.843 2.526 1.133.059 2.506.088 4.083.088 5.814 0 13.363-.395 18.671-.726 2.315-.145 3.351-1.481 3.634-1.928l-5.706-25.511a.499.499 0 0 1 .02-.286c.146-.385.248-.733.313-1.064l18.509-95.063-10.397-12.757z" fill="#1d2445"></path><path d="m83.199 179.267-2.832 3.3a19.889 19.889 0 0 0-4.476 9.398l-6.337 34.872-38.5-2.624 1.071-69.529a5.96 5.96 0 0 1 6.197-5.864l45.082 1.802" fill="#fff"></path><path d="m69.555 227.336-.035-.001-38.5-2.623a.501.501 0 0 1-.466-.507l1.071-69.529a6.409 6.409 0 0 1 2.02-4.593 6.446 6.446 0 0 1 4.698-1.763l45.082 1.802a.5.5 0 0 1 .479.52c-.011.276-.253.466-.52.48l-45.082-1.802c-1.475-.051-2.892.469-3.97 1.489s-1.684 2.398-1.707 3.882l-1.063 69.055 37.581 2.561 6.257-34.433a20.402 20.402 0 0 1 4.588-9.633l2.832-3.3a.504.504 0 0 1 .705-.055.501.501 0 0 1 .054.705l-2.832 3.3a19.42 19.42 0 0 0-4.364 9.162l-6.336 34.872a.5.5 0 0 1-.492.411z" fill="#1d2445"></path><path d="m91.655 115.623-6.112 31.308.622 26.74-54.185-7.462.231-23.207a70.571 70.571 0 0 1 2.999-19.665l5.431-18.021z" fill="#1d2445"></path><path d="M86.164 174.17a.531.531 0 0 1-.068-.005l-54.186-7.462a.5.5 0 0 1-.432-.5l.231-23.207a71.022 71.022 0 0 1 3.021-19.804l5.431-18.021a.5.5 0 0 1 .578-.346l51.015 10.307a.5.5 0 0 1 .392.586l-6.102 31.256.618 26.545a.5.5 0 0 1-.498.651zm-53.681-8.397 53.167 7.322-.608-26.152c0-.036.002-.072.009-.107l6.017-30.821-50.082-10.118-5.299 17.585a70.044 70.044 0 0 0-2.978 19.525zM59.514 73.06l23.68-17.31 25.965 35.522-23.68 17.309z" fill="#1d2445"></path><path d="M85.48 109.085a.5.5 0 0 1-.404-.205L59.112 73.358a.5.5 0 0 1 .109-.699l23.682-17.31a.502.502 0 0 1 .699.109l25.964 35.523a.498.498 0 0 1-.109.699l-23.682 17.309a.502.502 0 0 1-.295.096zM60.214 73.171l25.374 34.715 22.875-16.719-25.374-34.715z" fill="#1d2445"></path><path d="m57.135 69.133-4.51 6.13c-.43.58-.85 1.18-1.25 1.78 0 2.73-.8 6.6-2.39 11.54-2.49 7.72-4.97 12.1-7.33 13.21l-2.47 8.26c7.23.77 13.42-6.97 17.36-19.18 2.72-8.46 3.48-16.7.59-21.74z" fill="#fff"></path><path d="M40.171 110.606c-.001 0 0 0 0 0-.344 0-.69-.019-1.039-.056a.502.502 0 0 1-.427-.64l2.47-8.26a.506.506 0 0 1 .266-.31c1.561-.734 4.054-3.57 7.067-12.911 1.57-4.877 2.366-8.708 2.366-11.387 0-.099.029-.195.084-.277.405-.607.83-1.214 1.264-1.8l4.509-6.129a.499.499 0 0 1 .836.047c2.715 4.734 2.521 12.598-.547 22.142-4.014 12.444-10.156 19.581-16.849 19.581zm-.328-1.007c6.367.255 12.285-6.668 16.226-18.88 2.833-8.812 3.176-16.093.995-20.646l-4.037 5.486a43.414 43.414 0 0 0-1.154 1.637c-.029 2.773-.84 6.654-2.413 11.54-2.44 7.564-4.925 12.071-7.389 13.405zm43.822 232.154c-.17.08-1.46.75-3.24 1.7-.7.37-1.46.78-2.27 1.21-1.43.76-2.98 1.59-4.44 2.37-3.31 1.78-6.17 3.31-6.17 3.31l-.11-.25-1.88-4.37-1.24-2.88-2.51-5.83-.77-1.81-2.63-6.1-4.8-11.16-15.11-32.78c-.85-1.98-1.41-4.23-1.65-6.63v-.01h32.26l7.34 32.85 3.53 14.85 3.15 13.25.4 1.68z" fill="#1d2445"></path><path d="M67.545 350.842a.503.503 0 0 1-.458-.298l-9.142-21.242-4.8-11.161-15.104-32.769c-.879-2.048-1.447-4.328-1.694-6.789a.507.507 0 0 1 .498-.56h32.26a.5.5 0 0 1 .488.391l7.34 32.85 7.219 30.375a.5.5 0 0 1-.274.566c-.155.073-1.431.735-3.218 1.689l-2.271 1.21c-1.134.604-2.345 1.25-3.526 1.882l-.913.488c-3.31 1.779-6.17 3.31-6.17 3.31a.498.498 0 0 1-.235.058zM37.4 279.023c.258 2.133.781 4.141 1.554 5.942l15.104 32.769 13.728 31.912c.948-.508 3.191-1.709 5.691-3.054l.914-.488a2072.94 2072.94 0 0 1 3.528-1.883l2.271-1.211a260.42 260.42 0 0 1 2.898-1.526l-3.6-15.146-3.53-14.85-7.254-32.465z" fill="#1d2445"></path><path d="m100.678 352.712 4.399-2.62c1.213-.723 2.057-1.958 2.244-3.284.274-1.949-.927-3.602-2.818-3.878l-8.342-1.216c-5.272-.769-9.621-3.836-11.919-8.407l-2.751-5.472-3.66 2.059c-.882.496-1.337 1.523-1.057 2.387l.801 2.472-5.018 1.97c-3.399 1.334-7.004.72-9.286-1.583l-3.524-3.555c-.617-.623-1.795-.156-1.976.784l-3.079 15.996.173 1.501a2.59 2.59 0 0 0 2.54 2.293z" fill="#fff"></path><path d="M100.677 353.212h-.006l-43.273-.553a3.096 3.096 0 0 1-3.03-2.735l-.173-1.502a.515.515 0 0 1 .005-.152l3.079-15.995c.162-.84.922-1.473 1.769-1.473.404 0 .778.153 1.053.432l3.524 3.555c2.105 2.125 5.583 2.713 8.749 1.469l4.58-1.798-.656-2.024c-.352-1.087.202-2.366 1.288-2.977l3.66-2.059a.5.5 0 0 1 .692.211l2.751 5.472c2.225 4.425 6.433 7.391 11.545 8.137l8.342 1.216c2.159.315 3.552 2.226 3.241 4.442-.208 1.48-1.137 2.843-2.483 3.645l-4.399 2.62a.522.522 0 0 1-.258.069zm-45.48-4.828.164 1.425a2.096 2.096 0 0 0 2.05 1.851l43.132.551 4.278-2.548c1.088-.648 1.837-1.741 2.004-2.924.236-1.683-.771-3.076-2.395-3.313l-8.342-1.216c-5.439-.794-9.92-3.957-12.294-8.678l-2.516-5.004-3.203 1.802c-.668.376-1.031 1.165-.827 1.797l.801 2.473a.5.5 0 0 1-.293.62l-5.018 1.97c-1.235.484-2.502.73-3.768.73-2.354 0-4.505-.862-6.056-2.428l-3.524-3.555c-.293-.295-1.017-.062-1.13.527z" fill="#1d2445"></path><path d="m54.311 349.417.523 1.583c.942 2.848 3.552 4.665 6.7 4.665h33.473a4.15 4.15 0 0 0 1.905-.481l6.187-3.226c.464-.242.292-.944-.231-.944h-25.52c-.488 0-.93-.191-1.232-.531-1.516-1.71-3.736-2.668-6.188-2.668H55.553c-.825-.001-1.489.857-1.242 1.602z" fill="#1d2445"></path><path d="M95.007 356.166H61.533c-3.352 0-6.168-1.966-7.174-5.008l-.523-1.583c-.164-.493-.069-1.038.26-1.493a1.81 1.81 0 0 1 1.455-.767h14.376c2.61 0 4.941 1.007 6.562 2.836.208.234.513.363.858.363h25.52c.469 0 .86.307.971.763s-.093.908-.51 1.124l-6.187 3.227a4.641 4.641 0 0 1-2.134.538zm-39.455-7.851a.815.815 0 0 0-.646.352c-.139.192-.183.408-.122.594l.523 1.583c.869 2.626 3.312 4.322 6.225 4.322h33.473c.562 0 1.14-.146 1.674-.425l6.187-3.227h-25.52a2.143 2.143 0 0 1-1.606-.699c-1.429-1.612-3.494-2.5-5.814-2.5z" fill="#1d2445"></path><path d="M49.045 344.487a3.743 3.743 0 0 0-2.286-1.269l-8.118-1.224a17.865 17.865 0 0 1-3.485-.904l-.31-.181a7.493 7.493 0 0 1-3.709-6.828l.565-4.794-2.409-.495a1.79 1.79 0 0 0-2.058 1.2l-.802 2.475-4.596-1.705a8.675 8.675 0 0 1-5.623-7.284l-.504-5.103c-.087-.891-1.17-1.289-1.815-.665l-6.218 6.035-4.377 4.251-.378.366-1.774 3.259 10.92 10.406 1.91 1.82 5.31 5.061 2.957 3.379 10.034.009 12.044.246h.029l.187-.121 2.322-1.484 1.358-.87a3.738 3.738 0 0 0 1.726-3.122 3.766 3.766 0 0 0-.9-2.458z" fill="#fff"></path><path d="M44.349 353.041h-.029l-12.055-.246-10.024-.009a.502.502 0 0 1-.376-.171l-2.957-3.38L.802 331.982a.5.5 0 0 1-.094-.602l1.774-3.259a.507.507 0 0 1 .091-.12l10.972-10.651a1.57 1.57 0 0 1 2.661.975l.504 5.104a8.216 8.216 0 0 0 5.299 6.863l4.108 1.523.642-1.979a2.317 2.317 0 0 1 2.634-1.535l2.409.495a.502.502 0 0 1 .396.549l-.565 4.794a6.958 6.958 0 0 0 3.464 6.338l.311.182a17.9 17.9 0 0 0 3.307.841l8.118 1.225a4.25 4.25 0 0 1 2.592 1.438 4.257 4.257 0 0 1 1.017 2.785 4.226 4.226 0 0 1-1.957 3.54l-3.863 2.473a.515.515 0 0 1-.273.08zm-21.88-1.255 9.807.009 11.929.243 3.741-2.393a3.23 3.23 0 0 0 1.496-2.706 3.248 3.248 0 0 0-2.759-3.228l-8.118-1.225a18.417 18.417 0 0 1-3.582-.928l-.391-.22a7.963 7.963 0 0 1-3.956-7.283l.514-4.373-1.959-.402a1.299 1.299 0 0 0-1.482.864l-.802 2.475a.5.5 0 0 1-.65.315l-4.596-1.705a9.221 9.221 0 0 1-5.947-7.703l-.504-5.104a.577.577 0 0 0-.971-.355l-10.917 10.6-1.554 2.854 17.861 17.021z" fill="#1d2445"></path><path d="m22.242 350.748-.542 4.441 17.092.127a3.592 3.592 0 0 0 1.759-.444l5.933-3.282c.315-.174.194-.654-.167-.657z" fill="#1d2445"></path><path d="M38.826 355.815h-.039l-17.091-.126a.501.501 0 0 1-.493-.561l.542-4.441a.5.5 0 0 1 .496-.439h.004l24.075.186c.393.003.721.261.817.642s-.07.763-.414.952l-5.932 3.282a4.096 4.096 0 0 1-1.965.505zm-16.562-1.122 16.531.122.03.5v-.5a3.09 3.09 0 0 0 1.484-.382l5.431-3.005-23.057-.177z" fill="#1d2445"></path><path d="m2.979 337.931 10.431 9.688 7.978 7.413c1.479.054 5.858-.62 5.858-.62l-10.64-9.887a1.802 1.802 0 0 1-.57-1.22 8.988 8.988 0 0 0-2.857-6.128l-2.932-2.726-6.948-6.453-.174-.162a1.075 1.075 0 0 0-1.753.462l-.506 1.59a7.767 7.767 0 0 0 2.113 8.043z" fill="#1d2445"></path><path d="m21.571 355.535-.201-.003a.502.502 0 0 1-.322-.134L2.639 338.296a8.304 8.304 0 0 1-2.25-8.561l.505-1.591a1.572 1.572 0 0 1 2.569-.677l10.056 9.342a9.414 9.414 0 0 1 2.14 2.94 9.43 9.43 0 0 1 .875 3.528c.019.338.165.65.411.879l10.641 9.888a.5.5 0 0 1-.264.861c-.166.026-4.105.63-5.751.63zM2.399 328.048a.576.576 0 0 0-.551.4l-.505 1.59a7.297 7.297 0 0 0 1.977 7.525l18.269 16.971c1.077-.003 3.259-.285 4.553-.468l-9.876-9.177a2.281 2.281 0 0 1-.729-1.559 8.436 8.436 0 0 0-.783-3.157 8.42 8.42 0 0 0-1.914-2.631l-10.055-9.343a.568.568 0 0 0-.386-.151zm177.72-185.786a.51.51 0 0 1-.183-.034l-13.965-5.474a.5.5 0 0 1 .365-.931l13.965 5.473a.5.5 0 0 1-.182.966zm-3.437 1.674a.506.506 0 0 1-.148-.022l-12.961-4.017a.5.5 0 1 1 .295-.955l12.961 4.017a.5.5 0 0 1-.147.977zm-5.388 1.214a.535.535 0 0 1-.105-.011l-10.133-2.18a.501.501 0 0 1-.384-.595.506.506 0 0 1 .594-.384l10.133 2.18a.501.501 0 0 1-.105.99z" fill="#1d2445"></path></svg></g><g transform="translate(168.0 500.0) rotate(0.0 88.0 6.0) scale(0.6150964233540928 0.6312799200378768)"><svg width="286.134" height="19.009" viewBox="0 0 286.134 19.009"><path d="M286.134 0c0 10.498-8.97 19.009-20.036 19.009H20.036C8.97 19.009 0 10.498 0 0z" fill="#eff0f2"></path></svg></g><g transform="translate(394.0 500.0) rotate(0.0 102.5 7.0) scale(0.7164475385658468 0.7364932400441896)"><svg width="286.134" height="19.009" viewBox="0 0 286.134 19.009"><path d="M286.134 0c0 10.498-8.97 19.009-20.036 19.009H20.036C8.97 19.009 0 10.498 0 0z" fill="#eff0f2"></path></svg></g><g transform="translate(393.0 148.0) rotate(0.0 117.0 177.5) scale(0.9996198027246047 0.9977767846853911)"><svg width="234.089" height="355.791" viewBox="0 0 234.089 355.791"><path d="m172.745 128.734-1.366-2.402-36.751 4.247 8.232 97.497-2.735 27.927 1.71 3s23.6 6.04 23.59 3.99l2.99-6.99-.031-23.068 5.852-76.489 1.333-4.779a30.063 30.063 0 0 0-2.824-22.933z" fill="#fff"></path><path d="M164.082 263.918c-5.004 0-21.665-4.25-22.372-4.431a.504.504 0 0 1-.311-.236l-1.71-3a.503.503 0 0 1-.063-.297l2.735-27.928-8.232-97.406a.5.5 0 0 1 .44-.539l36.75-4.247a.498.498 0 0 1 .492.25l1.366 2.402c3.997 7.028 5.043 15.525 2.871 23.314l-1.333 4.778-5.835 76.393.033 23.029a.49.49 0 0 1-.041.197l-2.96 6.922a.76.76 0 0 1-.211.404c-.273.276-.758.395-1.619.395zm-21.919-5.348c1.961.497 17.331 4.348 21.919 4.348.531 0 .772-.055.869-.087l.014-.034 2.95-6.896-.031-22.965 5.854-76.528 1.35-4.875c2.101-7.533 1.089-15.753-2.777-22.551l-1.203-2.115-35.94 4.153 8.19 97.014-2.72 27.86z" fill="#1d2445"></path><path d="M168.424 262.993c.01 2.05-.33 4.09-.98 6.03l-10.86 32.05-3.69 10.91-2.02 5.97-.6 1.76-1.93 5.71-.95 2.81-1.45 4.28-.08.24s-17.91 2.09-18.08 2.09l3.13-17.05 2.04-13.44 6.88-45.35.29-3h28.29z" fill="#fff"></path><path d="M127.784 335.342a.5.5 0 0 1-.491-.59l3.13-17.05 8.917-58.775.287-2.973a.499.499 0 0 1 .498-.452h28.29a.5.5 0 0 1 .5.499l.01 6.99a19.177 19.177 0 0 1-1.006 6.19l-21.579 63.728a.503.503 0 0 1-.417.34c-8.185.955-17.974 2.093-18.139 2.093zm12.794-78.839-.247 2.548-8.923 58.817-3.011 16.406c2.516-.283 11.726-1.355 17.093-1.981l21.48-63.43c.643-1.917.963-3.892.954-5.868l-.009-6.492z" fill="#1d2445"></path><path d="m145.58 143.534-.608-2.696-36.396-6.635-12.765 76.399-4.001 4.848-2.981 14.446a10.073 10.073 0 0 0-.099 3.51l1.34 9.048h.005l1.677 15.369 4.84 7.7s22.23.06 21.81-1.95l1.79-5.75-5.156-24.44 23.902-62.903 2.668-4.186a30.047 30.047 0 0 0 3.974-22.76z" fill="#fff"></path><path d="M96.795 266.023h-.203a.5.5 0 0 1-.422-.234l-4.84-7.7a.508.508 0 0 1-.074-.211l-1.67-15.302a.707.707 0 0 1-.01-.049l-1.34-9.048a10.533 10.533 0 0 1 .104-3.684l2.981-14.446a.507.507 0 0 1 .104-.218l3.915-4.744 12.743-76.267a.5.5 0 0 1 .583-.41l36.396 6.635a.501.501 0 0 1 .398.382l.608 2.695c1.778 7.887.306 16.32-4.039 23.139l-2.641 4.143-23.832 62.718 5.126 24.297a.49.49 0 0 1-.012.252l-1.761 5.659a.814.814 0 0 1-.19.512c-1.379 1.698-15.79 1.881-21.924 1.881zm-4.557-8.369 4.632 7.369c11.31-.003 20.071-.618 21.035-1.473a.497.497 0 0 1 .022-.126l1.751-5.626-5.129-24.313a.5.5 0 0 1 .022-.281l23.902-62.903a.513.513 0 0 1 .045-.091l2.668-4.186c4.203-6.595 5.627-14.753 3.907-22.381l-.535-2.373-35.571-6.485-12.682 75.898a.514.514 0 0 1-.107.236l-3.921 4.752-2.956 14.324a9.541 9.541 0 0 0-.094 3.336l1.331 8.98a.503.503 0 0 1 .017.086zm31.089 92.473h22.695l1.329-3.705a18.706 18.706 0 0 0 .851-9.351l-.682-4.155-9.772-5.508-9.832 5.508-4.914 7.769a7.444 7.444 0 0 0-1.151 4.081l.056 3.96a1.42 1.42 0 0 0 1.42 1.401z" fill="#1d2445"></path><path d="M146.022 350.627h-22.695a1.928 1.928 0 0 1-1.92-1.896l-.056-3.959a7.927 7.927 0 0 1 1.228-4.354l4.915-7.77a.497.497 0 0 1 .178-.169l9.832-5.508a.503.503 0 0 1 .49.001l9.772 5.508a.501.501 0 0 1 .248.354l.682 4.155a19.237 19.237 0 0 1-.874 9.601l-1.329 3.705a.502.502 0 0 1-.471.332zm-17.751-17.337-4.847 7.662a6.93 6.93 0 0 0-1.073 3.807l.056 3.96a.923.923 0 0 0 .92.908h22.343l1.21-3.374a18.247 18.247 0 0 0 .829-9.101l-.644-3.919-9.318-5.252z" fill="#1d2445"></path><path d="M134.225 325.282h10.026c1.034 0 1.703.838 1.496 1.872l-1.945 9.682c-.208 1.034-1.214 1.872-2.248 1.872h-10.027c-1.034 0-1.703-.838-1.496-1.872l1.945-9.682c.208-1.034 1.215-1.872 2.249-1.872z" fill="#1d2445"></path><path d="M141.554 339.208h-10.027c-.646 0-1.21-.255-1.589-.718-.382-.466-.527-1.104-.397-1.753l1.945-9.682c.256-1.274 1.459-2.273 2.739-2.273h10.026c.646 0 1.21.255 1.589.718.382.466.527 1.104.397 1.753l-1.945 9.682c-.256 1.274-1.459 2.273-2.738 2.273zm-7.329-13.426c-.793 0-1.599.674-1.759 1.471l-1.945 9.682c-.072.357-.004.685.19.922.186.227.476.352.816.352h10.027c.792 0 1.598-.674 1.758-1.471l1.945-9.682c.072-.357.004-.685-.19-.922-.186-.227-.476-.352-.816-.352z" fill="#1d2445"></path><path d="M138.431 349.783c.004-.058.017-.113.017-.172a2.59 2.59 0 0 0-2.582-2.582h-3.442a2.59 2.59 0 0 0-2.582 2.582c0 .059.014.114.018.172h-7.763l1.68 4.238c.301.759 1.133 1.27 2.068 1.27h16.6c.935 0 1.767-.51 2.068-1.27l1.68-4.238z" fill="#fff"></path><path d="M142.445 355.791h-16.6c-1.139 0-2.157-.638-2.533-1.587l-1.68-4.236a.502.502 0 0 1 .465-.685h7.263a3.086 3.086 0 0 1 3.064-2.754h3.442c1.589 0 2.9 1.208 3.064 2.754h7.263a.501.501 0 0 1 .465.685l-1.68 4.237c-.375.948-1.393 1.586-2.533 1.586zm-19.612-5.508 1.409 3.553c.226.571.87.955 1.603.955h16.6c.733 0 1.377-.384 1.603-.954l1.409-3.554h-7.026a.503.503 0 0 1-.499-.533l.012-.108a2.084 2.084 0 0 0-2.078-2.112h-3.442a2.084 2.084 0 0 0-2.082 2.082l.017.139a.5.5 0 0 1-.499.533h-7.027zm50.783-213.636 3.055 81.459h-37.675l-6.618-75.349z" fill="#1d2445"></path><path d="M176.691 218.605h-37.694a.5.5 0 0 1-.498-.456L131.88 142.8a.499.499 0 0 1 .425-.538l41.238-6.109a.5.5 0 0 1 .573.476l3.05 81.318a.5.5 0 0 1-.475.658zm-37.236-1h36.697l-3.014-80.381-40.221 5.958z" fill="#1d2445"></path><path d="m147.54 150.549-20.274 78.333-35.496-13.246 15.016-73.863z" fill="#1d2445"></path><path d="M127.267 229.382a.53.53 0 0 1-.175-.031l-35.496-13.246a.5.5 0 0 1-.315-.568l15.016-73.864a.496.496 0 0 1 .595-.389l40.754 8.776a.5.5 0 0 1 .378.615l-20.273 78.334a.494.494 0 0 1-.484.373zm-34.921-14.065 34.576 12.903 20.004-77.293-39.75-8.56z" fill="#1d2445"></path><path d="m72.92 117.643 29.735-50.664L82.29 58.35 63.026 97.983l-4.665 9.831-23.084 20.173c-.245.027-.484.059-.721.095l-2.233-.604a10.855 10.855 0 0 0-5.096-.12l-2.747.583-11.775-.148a.915.915 0 0 0-1.008.81c-.004.039-.004.08-.004.12.013.299.107.58.259.845.285.496.78.926 1.349 1.263.847.468 1.81.696 2.776.661l3.828-.096a2.774 2.774 0 0 1 1.607.48 20.486 20.486 0 0 0-1.574 1.682l-.001-.02L.808 147.369a.646.646 0 0 0-.212.889l.008.013c.625.798 1.863 1.062 3.003.555l.515-.28a.643.643 0 0 0 .055.289c.5.882 1.684 1.327 2.887.994l1.038-.378c.484.772 1.505 1.222 2.615 1.044l2.813-.683c.485.566 1.322.884 2.255.764l13.546-2.816a8.14 8.14 0 0 0 2.568-1.034c.065-.031.133-.05.193-.093l.198-.144c.057-.039.111-.08.166-.121l3.528-2.558a8.975 8.975 0 0 0 2.682-3.109l23.993-13.634c2.393-1.278 6.552-3.99 8.247-6.107l.624-.99.014.013.302-.515.738-1.172c.135-.21.242-.43.336-.653z" fill="#fff"></path><path d="M15.397 151.103c-.785 0-1.506-.265-2.026-.736l-2.536.616a3.57 3.57 0 0 1-.6.053c-.915 0-1.764-.371-2.31-.987l-.691.251c-1.451.411-2.718-.077-3.38-1.037l-.008.004c-1.406.63-2.87.291-3.635-.686a.519.519 0 0 1-.071-.123c-.13-.197-.18-.505-.109-.803.071-.299.254-.551.516-.711l19.091-13.805c.308-.366.651-.743 1.027-1.126a2.214 2.214 0 0 0-.704-.115l-4.074.1a5.848 5.848 0 0 1-2.828-.728c-.707-.418-1.235-.918-1.541-1.452a2.35 2.35 0 0 1-.325-1.072 1.415 1.415 0 0 1 1.566-1.45l11.672.145 2.692-.572a11.392 11.392 0 0 1 5.329.126l2.134.577c.159-.023.318-.044.479-.063l22.889-20.003 4.621-9.737 19.266-39.638a.502.502 0 0 1 .645-.242l20.365 8.628a.5.5 0 0 1 .237.713l-29.735 50.665a4.276 4.276 0 0 1-.343.67l-1.032 1.673a.527.527 0 0 1-.097.119l-.55.873c-1.814 2.271-6.132 5.052-8.435 6.282l-23.855 13.556a9.533 9.533 0 0 1-2.761 3.15l-3.893 2.822c-.087.063-.174.099-.231.123a8.705 8.705 0 0 1-2.722 1.088l-13.546 2.816a3.415 3.415 0 0 1-.491.036zm-1.868-1.789a.5.5 0 0 1 .379.175c.394.458 1.07.688 1.812.594l13.508-2.81a7.638 7.638 0 0 0 2.41-.972c.022-.013.11-.053.135-.063l.347-.241 3.57-2.589a8.517 8.517 0 0 0 2.533-2.936.489.489 0 0 1 .196-.202l23.993-13.634c2.244-1.199 6.416-3.876 8.104-5.985l.591-.944a.455.455 0 0 1 .076-.093l.979-1.581c.119-.189.213-.386.297-.584l29.476-50.232-19.403-8.221-19.056 39.206-4.663 9.827a.488.488 0 0 1-.123.162l-23.084 20.174a.51.51 0 0 1-.274.121c-.238.026-.471.057-.702.092a.508.508 0 0 1-.205-.012l-2.233-.604a10.385 10.385 0 0 0-4.86-.114l-2.749.584c-.036.008-.075.007-.11.011l-11.775-.148c-.307-.023-.482.153-.505.365.008.248.071.45.192.661.221.385.625.759 1.17 1.082a4.847 4.847 0 0 0 2.332.595l4.005-.1h.004a3.32 3.32 0 0 1 1.895.565.5.5 0 0 1 .067.774 20.456 20.456 0 0 0-1.536 1.641.495.495 0 0 1-.208.149L1.101 147.775c-.074.047-.091.084-.097.111a.141.141 0 0 0 .013.101c.489.598 1.513.771 2.388.383l.479-.262a.498.498 0 0 1 .738.455c.005.013.019.087.022.1.347.59 1.345.941 2.287.686l1-.366a.5.5 0 0 1 .595.204c.388.619 1.229.964 2.112.816l2.773-.675a.535.535 0 0 1 .118-.014z" fill="#1d2445"></path><path d="m121.664 269.683-4.06 33.59-1.38 11.44-.75 6.25-.23 1.85-.72 5.98-.36 2.95-.53 4.48-.04.26s-3 .45-6.47.98c-1.54.24-3.16.48-4.66.72-.83.12-1.61.24-2.32.35h-3.48l-.09-1.53-.67-12.1-.76-13.58-2.55-45.8-.84-7.7h28.44l1.21 5.75c.42 2.01.51 4.07.26 6.11z" fill="#fff"></path><path d="M100.144 339.033h-3.48a.5.5 0 0 1-.499-.471l-1.52-27.211-2.55-45.801-.838-7.673a.499.499 0 0 1 .497-.555h28.44a.5.5 0 0 1 .489.397l1.21 5.75c.433 2.072.523 4.183.267 6.272l-8.072 66.816a.5.5 0 0 1-.42.418s-3 .449-6.469.979l-1.936.298c-.921.141-1.842.281-2.722.422-.835.12-1.613.24-2.322.351a.308.308 0 0 1-.075.008zm-3.008-1h2.97c.701-.109 1.47-.228 2.287-.346.875-.14 1.797-.28 2.721-.421l1.934-.298c2.749-.42 5.202-.789 6.105-.925l3.955-32.83 4.06-33.591a18.205 18.205 0 0 0-.252-5.947l-1.127-5.353H92.311l.78 7.146z" fill="#1d2445"></path><path d="m73.157 350.453-4.399-2.62c-1.213-.723-2.057-1.958-2.244-3.284-.274-1.949.927-3.602 2.818-3.878l8.342-1.216c5.272-.769 9.621-3.836 11.919-8.407l2.751-5.472 3.66 2.059c.882.496 1.337 1.523 1.057 2.387l-.801 2.472 5.018 1.97c3.399 1.334 7.004.72 9.286-1.583l3.524-3.555c.617-.623 1.795-.156 1.976.784l3.079 15.996-.434 3.765z" fill="#1d2445"></path><path d="M73.157 350.953a.503.503 0 0 1-.256-.07l-4.399-2.62c-1.346-.803-2.275-2.164-2.483-3.645-.312-2.217 1.082-4.126 3.241-4.442l8.342-1.216c5.112-.746 9.32-3.712 11.544-8.137l2.751-5.472a.503.503 0 0 1 .692-.211l3.66 2.059c1.086.61 1.64 1.891 1.288 2.978l-.657 2.023 4.58 1.798c3.165 1.244 6.643.655 8.749-1.469l3.524-3.555a1.468 1.468 0 0 1 1.053-.432c.847 0 1.607.633 1.769 1.473l3.079 15.996c.009.05.011.102.005.152l-.434 3.765a.5.5 0 0 1-.49.442l-45.552.582-.006.001zm19.398-24.685-2.516 5.004c-2.373 4.721-6.854 7.884-12.293 8.678l-8.342 1.216c-1.625.237-2.632 1.631-2.396 3.313.167 1.182.917 2.275 2.005 2.924l4.278 2.548 44.971-.574.375-3.251-3.065-15.921c-.113-.588-.836-.823-1.13-.527l-3.524 3.555c-1.551 1.565-3.702 2.428-6.057 2.428-1.265 0-2.532-.246-3.767-.73l-5.018-1.97a.5.5 0 0 1-.293-.62l.801-2.472c.205-.632-.159-1.422-.827-1.798z" fill="#1d2445"></path><path d="m120.525 347.158-.523 1.583c-.942 2.848-3.552 4.665-6.7 4.665H79.829a4.15 4.15 0 0 1-1.905-.481l-7.382-3.85c-.158-.082-.099-.32.079-.32h26.868c.488 0 .93-.191 1.232-.531 1.516-1.71 3.736-2.667 6.188-2.667h14.375c.824-.002 1.488.856 1.241 1.601z" fill="#fff"></path><path d="M113.302 353.906H79.829c-.721 0-1.46-.186-2.136-.538l-7.382-3.85a.67.67 0 0 1 .31-1.264h26.868c.346 0 .65-.129.857-.362 1.622-1.829 3.952-2.836 6.563-2.836h14.375c.566 0 1.109.286 1.455.766.329.455.424 1 .26 1.493l-.523 1.583c-1.006 3.042-3.822 5.008-7.174 5.008zm-41.334-4.651 6.187 3.227a3.652 3.652 0 0 0 1.674.425h33.473c2.914 0 5.357-1.696 6.226-4.322l.523-1.583c.062-.186.017-.401-.122-.594a.806.806 0 0 0-.642-.351h-14.378c-2.321 0-4.386.888-5.814 2.499-.399.451-.97.699-1.606.699z" fill="#1d2445"></path><path d="m167.935 135.439-5.012-56.773 2.547 4.27 20.874-17.819-8.32-9.271.06-.013-10.18-11.976a18 18 0 0 0-17.157-6.01L94.146 48.873a18 18 0 0 0-13.51 11.614l-.15.42-11.536 24.1 23.9 6.812 9.264 56.508-.03.006-1 21.5 73.5-6.5-1-29z" fill="#fff"></path><path d="M101.084 170.333a.502.502 0 0 1-.499-.524l1-21.5a.556.556 0 0 1 .008-.07l-9.185-56.026-23.596-6.725a.496.496 0 0 1-.314-.696L80.035 60.69l.13-.372c2.186-6.12 7.506-10.694 13.884-11.936l56.602-11.026a18.543 18.543 0 0 1 3.539-.342 18.467 18.467 0 0 1 14.094 6.519l10.18 11.976a.493.493 0 0 1 .102.193l8.149 9.081a.5.5 0 0 1-.047.714l-20.874 17.819a.488.488 0 0 1-.406.113.496.496 0 0 1-.348-.237l-1.427-2.393 4.771 54.042 5.104-.999a.5.5 0 0 1 .595.474l1 29a.5.5 0 0 1-.456.516l-73.5 6.5-.043.001zm1.492-21.815-.966 20.766 72.458-6.407-.963-27.94-5.073.993a.498.498 0 0 1-.594-.446l-5.012-56.773a.5.5 0 0 1 .927-.301l2.244 3.762L185.63 65.07l-7.978-8.89a.493.493 0 0 1-.114-.218L167.523 44.18a17.47 17.47 0 0 0-13.333-6.167c-1.12 0-2.246.109-3.348.323L94.241 49.363c-6.034 1.175-11.067 5.502-13.134 11.291l-.15.42-11.301 23.615 23.331 6.649a.5.5 0 0 1 .356.4l9.264 56.508a.51.51 0 0 1-.031.272z" fill="#1d2445"></path><path d="M127.911 74.642c10.075-1.194 14.941 4.144 15.561 9.38.44 3.712-1.116 7.593-5.173 10.224l.024.199c4.43 1.088 8.566 4.227 9.217 9.728.927 7.821-5.007 13.901-15.015 15.087-10.936 1.296-16.704-4.271-17.395-10.104-.612-5.169 1.945-9.102 6.408-11.714l-.016-.132c-4.435-1.693-6.905-4.962-7.353-8.74-.864-7.29 5.124-12.906 13.674-13.919zm4.188 37.611c3.513-.416 5.623-3.019 5.262-6.067-.448-3.778-3.564-5.694-7.601-6.291-3.204 1.321-4.843 3.934-4.474 7.05.303 3.123 3.034 5.756 6.747 5.316zm-3.843-30.729c-3.447.408-4.895 2.932-4.581 5.584.346 2.916 3.15 4.466 6.722 5.118 2.241-.937 4.045-3.302 3.731-5.953-.322-2.717-2.161-5.188-5.806-4.756z" fill="#1d2445"></path><path d="M129.426 119.949c-9.339 0-14.158-5.392-14.791-10.735-.572-4.831 1.476-8.881 5.931-11.761-3.935-1.758-6.43-4.937-6.891-8.826-.867-7.315 5.068-13.403 14.111-14.475 1.032-.122 1.98-.18 2.885-.18 8.941 0 12.752 5.381 13.298 9.99.473 3.992-1.233 7.675-4.702 10.222 4.95 1.5 8.205 5.16 8.77 9.929.965 8.147-5.245 14.434-15.453 15.643-1.08.128-2.143.193-3.158.193zm1.245-44.976c-.865 0-1.773.056-2.701.166-8.67 1.027-14.113 6.523-13.302 13.372.452 3.814 2.95 6.773 7.034 8.332a.5.5 0 0 1 .318.407l.016.132a.499.499 0 0 1-.244.492c-4.585 2.684-6.716 6.565-6.165 11.224.581 4.904 5.073 9.852 13.798 9.852.977 0 2-.063 3.041-.186 9.614-1.139 15.472-6.979 14.578-14.532-.545-4.599-3.85-8.076-8.84-9.301a.498.498 0 0 1-.377-.427l-.023-.199a.5.5 0 0 1 .225-.478c3.602-2.336 5.405-5.889 4.948-9.746-.499-4.201-4.021-9.108-12.306-9.108zm.556 37.836c-3.349 0-6.117-2.501-6.438-5.816-.395-3.333 1.392-6.163 4.781-7.56a.528.528 0 0 1 .264-.032c4.743.702 7.593 3.091 8.024 6.727.193 1.631-.266 3.195-1.294 4.404-1.035 1.217-2.6 2.005-4.406 2.219-.36.041-.648.058-.931.058zm-1.402-12.398c-2.911 1.249-4.382 3.602-4.042 6.475.238 2.452 2.184 4.923 5.444 4.924.244 0 .493-.015.747-.045 1.621-.192 2.957-.857 3.828-1.881.845-.994 1.223-2.286 1.063-3.638-.471-3.972-4.056-5.368-7.04-5.835zm.573-7.686a.547.547 0 0 1-.09-.008c-4.327-.79-6.792-2.709-7.129-5.551-.177-1.49.17-2.907.976-3.99.891-1.198 2.289-1.941 4.043-2.149.367-.043.657-.061.936-.061 2.958 0 5.114 2.06 5.491 5.247.354 2.994-1.761 5.522-4.034 6.473a.497.497 0 0 1-.193.039zm-1.264-10.759c-.241 0-.492.015-.752.046-1.541.183-2.702.789-3.424 1.76-.652.877-.931 2.041-.785 3.275.347 2.929 3.51 4.15 6.167 4.657 1.875-.847 3.582-2.931 3.292-5.375-.25-2.108-1.563-4.363-4.498-4.363z" fill="#1d2445"></path><path d="M219.183 119.2a30.425 30.425 0 0 1 3.033 8.69c.449 2.434-1.404 4.89-1.547 7.315-.281 4.784.316 9.449-2.095 13.591a30.294 30.294 0 0 1-12.101 11.623 30.45 30.45 0 0 1-8.383 2.972c-1.956.382-3.925-1.432-5.882-1.435-2.085-.003-4.156 1.782-6.18 1.364-8.594-1.792-16.353-7.248-20.774-15.611-7.87-14.888-2.187-33.343 12.71-41.218 14.889-7.871 33.349-2.178 41.219 12.709z" fill="#fff"></path><g fill="#1d2445"><path d="M197.532 163.944c-.987 0-1.938-.397-2.857-.782-.865-.362-1.682-.704-2.466-.705-.85 0-1.713.333-2.627.687-1.182.457-2.484.91-3.653.666-9.09-1.896-16.786-7.679-21.115-15.867-7.989-15.111-2.193-33.905 12.918-41.894a31.056 31.056 0 0 1 14.458-3.598c11.538 0 22.051 6.329 27.437 16.516a30.996 30.996 0 0 1 3.083 8.833c.282 1.531-.25 3.022-.766 4.465-.369 1.033-.717 2.009-.774 2.97-.063 1.069-.081 2.132-.1 3.185-.066 3.757-.128 7.305-2.063 10.629a30.863 30.863 0 0 1-12.299 11.813 31.034 31.034 0 0 1-8.521 3.021 3.541 3.541 0 0 1-.655.061zm-5.328-2.487c.99.001 1.939.398 2.857.782 1.037.434 1.996.847 2.934.661a29.972 29.972 0 0 0 8.245-2.924 29.85 29.85 0 0 0 11.902-11.431c1.804-3.099 1.864-6.521 1.927-10.144.019-1.066.038-2.143.102-3.226.064-1.104.454-2.194.831-3.248.492-1.379.957-2.681.724-3.947a29.962 29.962 0 0 0-2.983-8.547c-5.212-9.859-15.387-15.984-26.553-15.984a30.052 30.052 0 0 0-13.99 3.482c-14.625 7.731-20.232 25.918-12.502 40.543 4.189 7.924 11.637 13.521 20.434 15.355.913.187 1.985-.193 3.09-.62.958-.37 1.95-.752 2.982-.752z"></path><path d="M173.82 130.099c-.016.246-.022.489-.035.733 5.226-.927 10.943-.943 16.8.143.193.036.38.079.572.117.934-6.134 2.972-11.721 5.798-16.393-7.059-1.196-13.895-.812-19.878.853-1.761 4.401-2.909 9.316-3.257 14.547z"></path><path d="M191.157 131.592a.52.52 0 0 1-.096-.009l-.566-.116c-5.594-1.037-11.308-1.085-16.622-.142a.501.501 0 0 1-.586-.518l.013-.287c.006-.151.012-.301.022-.453.342-5.151 1.449-10.097 3.292-14.7a.5.5 0 0 1 .33-.296c6.221-1.731 13.198-2.034 20.096-.865a.5.5 0 0 1 .344.752c-2.853 4.717-4.835 10.322-5.732 16.209a.502.502 0 0 1-.495.425zm-9.474-1.944c2.978 0 6.004.281 8.994.835l.068.014c.909-5.565 2.77-10.871 5.407-15.422-6.436-.994-12.9-.682-18.702.893-1.748 4.44-2.801 9.204-3.13 14.164l-.006.104a45.865 45.865 0 0 1 7.369-.588zm40.533-1.758a30.577 30.577 0 0 1-3.642 20.906c-2.447-4.158-6.138-7.931-10.748-10.98.772-6.392 2.733-12.247 5.548-17.151 3.442 2.06 6.423 4.511 8.842 7.225z"></path><path d="M218.574 149.297a.502.502 0 0 1-.431-.246c-2.401-4.082-6.064-7.822-10.592-10.817a.501.501 0 0 1-.221-.477c.758-6.268 2.698-12.264 5.611-17.34a.503.503 0 0 1 .691-.18c3.46 2.072 6.474 4.535 8.958 7.322a.502.502 0 0 1 .119.242 31.048 31.048 0 0 1-3.702 21.249.503.503 0 0 1-.433.247c.001 0 .001 0 0 0zm-10.213-11.726c4.266 2.868 7.771 6.389 10.196 10.237a30.04 30.04 0 0 0 3.192-19.689c-2.292-2.551-5.046-4.822-8.193-6.759-2.661 4.781-4.452 10.368-5.195 16.211zm-10.27 25.82c-4.04.789-8.138.739-12.062-.071-4.786-3.94-8.487-9.913-10.539-17.006 2.605.048 5.263.306 7.958.804a49.951 49.951 0 0 1 8.373 2.338c1.261 5.317 3.418 10.081 6.27 13.935z"></path><path d="M192.246 164.457c-2.115 0-4.241-.218-6.318-.647a.492.492 0 0 1-.217-.104c-4.833-3.979-8.633-10.106-10.702-17.253a.5.5 0 0 1 .489-.638c2.686.05 5.391.322 8.04.813a50.684 50.684 0 0 1 8.458 2.361.5.5 0 0 1 .311.353c1.231 5.193 3.37 9.949 6.185 13.753a.502.502 0 0 1-.307.79 31.275 31.275 0 0 1-5.939.572zm-5.995-1.602c3.609.73 7.352.795 10.971.186-2.619-3.731-4.624-8.275-5.825-13.209a49.728 49.728 0 0 0-8.042-2.223 48.36 48.36 0 0 0-7.189-.777c2.037 6.626 5.599 12.292 10.085 16.023z"></path></g><path d="m233.548 142.377-1.143-7.805-.01-.064c-.031-.275-.584-1.669-.584-1.669l-6.755-12.259-10.029-20.08a20.018 20.018 0 0 0-4.808-6.462l-4.494-4.009L185.52 65.78 170.201 79l15.606 15.997 10.481 8.578 6.446 9.408 16.933 21.379-.497 2.443a7.797 7.797 0 0 0 .383 4.09c.311.798.504 1.634.577 2.49.234 2.417.679 6.215.679 6.215.127.63.645 1.096 1.274 1.167l.139.016a1.427 1.427 0 0 0 1.478-1.369c.039-.793.321-5.514.437-6.987l.001-.011a.572.572 0 0 1 .429-.494.536.536 0 0 1 .588.242l.968 1.579 2.682 9.178-1.047 8.122a1.932 1.932 0 0 0 1.274 2.066l.029.008.011.001a.49.49 0 0 0 .598-.339l2.391-8.613a6.496 6.496 0 0 0 .142-2.849l-.681-4.163 1.447-2.187a3.66 3.66 0 0 0 .579-2.59z" fill="#fff"></path><path d="M229.2 163.635a1.024 1.024 0 0 1-.281-.039c-1.123-.391-1.798-1.484-1.656-2.615l1.034-8.02-2.634-9.015-.934-1.521-.591-.01.498.05c-.119 1.513-.4 6.226-.437 6.973a1.925 1.925 0 0 1-2.033 1.842l-.139-.016a1.963 1.963 0 0 1-1.709-1.565c-.006-.04-.452-3.846-.687-6.267a8.43 8.43 0 0 0-.545-2.356 8.32 8.32 0 0 1-.41-4.358l.453-2.229-16.789-21.196-6.426-9.377-10.425-8.533-15.647-16.035c-.096-.099-.147-.233-.142-.371s.068-.267.173-.357l15.32-13.219a.5.5 0 0 1 .711.058l20.206 24.249 4.442 3.957a20.393 20.393 0 0 1 4.928 6.624l10.023 20.068 6.746 12.242c.242.601.608 1.557.642 1.854l1.15 7.853a4.16 4.16 0 0 1-.656 2.94l-1.338 2.021.649 3.971a7.016 7.016 0 0 1-.155 3.064l-2.39 8.612a.993.993 0 0 1-.951.721zm-.02-1.004.014.003 2.387-8.601a6.035 6.035 0 0 0 .132-2.63l-.682-4.168a.5.5 0 0 1 .077-.357l1.447-2.187c.44-.657.617-1.452.499-2.239l-1.143-7.807c-.038-.235-.318-1.002-.563-1.621l-6.729-12.202-10.038-20.098a19.41 19.41 0 0 0-4.694-6.313l-4.494-4.009-19.932-23.911-14.532 12.54 15.235 15.617 10.439 8.54c.037.03.069.065.096.104l6.446 9.408 16.912 21.351a.504.504 0 0 1 .098.41l-.497 2.443a7.297 7.297 0 0 0 .361 3.814c.325.835.53 1.719.606 2.624.233 2.407.678 6.199.678 6.199.077.372.415.682.834.729l.139.016a.93.93 0 0 0 .923-.894c.037-.753.319-5.485.438-7.005a1.09 1.09 0 0 1 .807-.951c.415-.105.901.085 1.135.464l.97 1.581a.546.546 0 0 1 .054.121l2.683 9.179c.02.066.025.136.016.204l-1.047 8.122a1.44 1.44 0 0 0 .925 1.524z" fill="#1d2445"></path><path d="m129.013 37.064.048-.001-.346-26.215C128.639 5.057 123.881.424 118.09.501l-5.299.07c-9.896.13-17.814 8.259-17.683 18.155l.073 5.507-3.16 3.347c-1.122 1.188-.292 3.141 1.341 3.158l1.906.021.089 6.748 5.315-.07 26.82 26.122c.718.699 1.923.181 1.908-.822z" fill="#fff"></path><path d="M128.268 64.381c-.419 0-.819-.165-1.125-.463l-26.671-25.977-5.107.067h-.007a.5.5 0 0 1-.5-.493l-.083-6.261-1.417-.015c-.958-.01-1.785-.564-2.159-1.445s-.198-1.861.459-2.557l3.021-3.2-.07-5.304c-.065-4.92 1.79-9.571 5.223-13.096S107.865.135 112.785.071L118.232 0c5.978 0 10.904 4.864 10.983 10.842l.346 26.215a.501.501 0 0 1-.045.214l.383 25.459c.006.44-.157.853-.46 1.16a1.653 1.653 0 0 1-1.171.491zm-27.597-27.443c.13 0 .255.051.349.142l26.82 26.122c.387.376.688.189.887-.013a.598.598 0 0 0 .172-.443l-.386-25.674a.513.513 0 0 1 .045-.216l-.343-26C128.143 5.421 123.665 1 118.232 1l-5.434.071c-4.653.061-9.003 1.931-12.25 5.264s-5.001 7.732-4.939 12.384l.073 5.507a.505.505 0 0 1-.136.35l-3.161 3.348a1.338 1.338 0 0 0-.266 1.479c.17.399.587.829 1.249.836l1.905.021a.501.501 0 0 1 .495.493l.083 6.249 4.815-.064z" fill="#1d2445"></path><path d="M99.706 23.281a.497.497 0 0 1-.349-.142l-1.082-1.054a.589.589 0 0 0-.444-.176l-2.565.034a.5.5 0 0 1-.012-1l2.565-.034c.42-.018.848.162 1.154.46l1.082 1.054a.5.5 0 0 1-.349.858zm9.645 1.891.052 3.971a9.166 9.166 0 0 1-5.431 8.493 5.2 5.2 0 0 0-5.269-5.132l-3.413.045.095 7.24c.035 2.639 2.715 4.415 5.159 3.419l9.686-3.95a3.744 3.744 0 0 0 2.33-3.518l-.181-13.679a3.07 3.07 0 0 0-3.028 3.111z" fill="#1d2445"></path><path d="M99.129 43.987c-2.309 0-4.212-1.881-4.243-4.193l-.095-7.24a.501.501 0 0 1 .494-.506l3.413-.044h.001c2.911 0 5.3 2.117 5.712 4.857a8.662 8.662 0 0 0 4.494-7.711l-.053-3.971a3.577 3.577 0 0 1 3.523-3.619.502.502 0 0 1 .506.494l.181 13.679a4.219 4.219 0 0 1-2.641 3.987l-9.686 3.95a4.237 4.237 0 0 1-1.606.317zm-3.332-10.945.089 6.74a3.258 3.258 0 0 0 3.243 3.206c.418 0 .831-.082 1.228-.244l9.686-3.95a3.225 3.225 0 0 0 2.019-3.048l-.173-13.13a2.576 2.576 0 0 0-2.037 2.55l.053 3.971a9.657 9.657 0 0 1-5.728 8.956.5.5 0 0 1-.703-.45c-.033-2.558-2.142-4.639-4.7-4.639z" fill="#1d2445"></path><path d="m99.289 38.425-2.571.63a1.095 1.095 0 0 1-1.355-1.049l-.041-3.118 2.472-.033a2.397 2.397 0 0 1 2.429 2.365 1.228 1.228 0 0 1-.934 1.205z" fill="#fff"></path><path d="M96.455 39.586a1.598 1.598 0 0 1-1.592-1.574l-.041-3.118a.5.5 0 0 1 .493-.506l2.472-.033c1.615 0 2.914 1.282 2.935 2.858a1.72 1.72 0 0 1-1.315 1.697l-2.571.63c-.125.03-.253.046-.381.046zm-.626-4.205.035 2.618a.6.6 0 0 0 .736.569l2.57-.63a.722.722 0 0 0 .553-.713 1.904 1.904 0 0 0-1.896-1.871z" fill="#1d2445"></path><path d="m92.85 91.819-2.099-12.32" fill="#fff"></path><path d="M92.85 92.319a.5.5 0 0 1-.492-.416l-2.1-12.32a.5.5 0 0 1 .986-.168l2.1 12.32a.5.5 0 0 1-.494.584z" fill="#1d2445"></path><path d="m162.923 78.666-2.506-10.833" fill="#fff"></path><path d="M162.923 79.166a.5.5 0 0 1-.487-.387l-2.506-10.833a.5.5 0 1 1 .975-.225l2.506 10.833a.5.5 0 0 1-.488.612z" fill="#1d2445"></path><path d="M21.511 131.878a10.855 10.855 0 0 0 7.041 3.221l1.031.067" fill="#fff"></path><path d="m29.584 135.666-.033-.001-1.031-.067a11.342 11.342 0 0 1-7.366-3.37.5.5 0 1 1 .713-.701 10.342 10.342 0 0 0 6.717 3.073l1.031.067a.5.5 0 0 1-.031.999zM4.099 149.181a.5.5 0 0 1-.269-.921l12.449-7.901a.5.5 0 0 1 .536.843l-12.449 7.901a.49.49 0 0 1-.267.078zm3.997.873a.5.5 0 0 1-.247-.935l11.163-6.339a.5.5 0 1 1 .494.87l-11.163 6.339a.496.496 0 0 1-.247.065zm5.421.413a.5.5 0 0 1-.22-.949l9.739-4.777a.5.5 0 0 1 .44.898l-9.739 4.777a.502.502 0 0 1-.22.051z" fill="#1d2445"></path></svg></g></svg>